<?xml version="1.0" encoding="iso-8859-1"?>
<!-- Generator: Adobe Illustrator 19.0.0, SVG Export Plug-In . SVG Version: 6.00 Build 0)  -->
<svg version="1.1" id="Layer_1" xmlns="http://www.w3.org/2000/svg" xmlns:xlink="http://www.w3.org/1999/xlink" x="0px" y="0px"
	 viewBox="0 0 512 512" style="enable-background:new 0 0 512 512;" xml:space="preserve">
<circle style="fill:#263A7A;" cx="256" cy="256" r="256"/>
<g>
	<path style="fill:#121149;" d="M509.185,294.029L329.938,119.861L317.487,176.7L164.059,323.232l-43.672,6.896l173.37,179.095
		C404.825,492.803,492.647,405.059,509.185,294.029z"/>
	<polygon style="fill:#121149;" points="119.658,284.207 165.495,330.99 161.761,280.709 	"/>
	<polygon style="fill:#121149;" points="119.648,193.195 159.749,233.301 160.611,191.066 	"/>
	<polygon style="fill:#121149;" points="119.972,238.833 158.887,277.261 157.737,234.163 	"/>
	<polygon style="fill:#121149;" points="284.158,119.811 330.128,165.783 283.582,162.909 	"/>
	<polygon style="fill:#121149;" points="238.761,119.811 280.423,161.473 231.865,161.759 	"/>
	<polygon style="fill:#121149;" points="193.284,119.892 235.313,162.335 184.746,159.461 	"/>
</g>
<g>
	<path style="fill:#FEE187;" d="M187.733,178.424c-4.284,0-7.758-3.474-7.758-7.758v-45.511c0-4.284,3.474-7.758,7.758-7.758
		s7.758,3.474,7.758,7.758v45.511C195.491,174.951,192.019,178.424,187.733,178.424z"/>
	<path style="fill:#FEE187;" d="M233.244,178.424c-4.284,0-7.758-3.474-7.758-7.758v-45.511c0-4.284,3.474-7.758,7.758-7.758
		s7.758,3.474,7.758,7.758v45.511C241.002,174.951,237.528,178.424,233.244,178.424z"/>
</g>
<g>
	<path style="fill:#FFC61B;" d="M324.267,178.424c-4.284,0-7.758-3.474-7.758-7.758v-45.511c0-4.284,3.474-7.758,7.758-7.758
		s7.758,3.474,7.758,7.758v45.511C332.024,174.951,328.551,178.424,324.267,178.424z"/>
	<path style="fill:#FFC61B;" d="M278.756,178.424c-4.284,0-7.758-3.474-7.758-7.758v-45.511c0-4.284,3.474-7.758,7.758-7.758
		s7.758,3.474,7.758,7.758v45.511C286.513,174.951,283.041,178.424,278.756,178.424z"/>
</g>
<g>
	<path style="fill:#FEE187;" d="M187.733,394.602c-4.284,0-7.758-3.474-7.758-7.758v-45.511c0-4.284,3.474-7.758,7.758-7.758
		s7.758,3.474,7.758,7.758v45.511C195.491,391.13,192.019,394.602,187.733,394.602z"/>
	<path style="fill:#FEE187;" d="M233.244,394.602c-4.284,0-7.758-3.474-7.758-7.758v-45.511c0-4.284,3.474-7.758,7.758-7.758
		s7.758,3.474,7.758,7.758v45.511C241.002,391.13,237.528,394.602,233.244,394.602z"/>
</g>
<g>
	<path style="fill:#FFC61B;" d="M324.267,394.602c-4.284,0-7.758-3.474-7.758-7.758v-45.511c0-4.284,3.474-7.758,7.758-7.758
		s7.758,3.474,7.758,7.758v45.511C332.024,391.13,328.551,394.602,324.267,394.602z"/>
	<path style="fill:#FFC61B;" d="M278.756,394.602c-4.284,0-7.758-3.474-7.758-7.758v-45.511c0-4.284,3.474-7.758,7.758-7.758
		s7.758,3.474,7.758,7.758v45.511C286.513,391.13,283.041,394.602,278.756,394.602z"/>
	<path style="fill:#FFC61B;" d="M386.844,195.491h-45.511c-4.284,0-7.758-3.474-7.758-7.758s3.474-7.758,7.758-7.758h45.511
		c4.284,0,7.758,3.474,7.758,7.758S391.13,195.491,386.844,195.491z"/>
	<path style="fill:#FFC61B;" d="M386.844,241.002h-45.511c-4.284,0-7.758-3.474-7.758-7.758s3.474-7.758,7.758-7.758h45.511
		c4.284,0,7.758,3.474,7.758,7.758S391.13,241.002,386.844,241.002z"/>
	<path style="fill:#FFC61B;" d="M386.844,332.024h-45.511c-4.284,0-7.758-3.474-7.758-7.758s3.474-7.758,7.758-7.758h45.511
		c4.284,0,7.758,3.474,7.758,7.758S391.13,332.024,386.844,332.024z"/>
	<path style="fill:#FFC61B;" d="M386.844,286.513h-45.511c-4.284,0-7.758-3.474-7.758-7.758s3.474-7.758,7.758-7.758h45.511
		c4.284,0,7.758,3.474,7.758,7.758S391.13,286.513,386.844,286.513z"/>
</g>
<g>
	<path style="fill:#FEE187;" d="M170.667,195.491h-45.511c-4.284,0-7.758-3.474-7.758-7.758s3.474-7.758,7.758-7.758h45.511
		c4.284,0,7.758,3.474,7.758,7.758S174.951,195.491,170.667,195.491z"/>
	<path style="fill:#FEE187;" d="M170.667,241.002h-45.511c-4.284,0-7.758-3.474-7.758-7.758s3.474-7.758,7.758-7.758h45.511
		c4.284,0,7.758,3.474,7.758,7.758S174.951,241.002,170.667,241.002z"/>
	<path style="fill:#FEE187;" d="M170.667,332.024h-45.511c-4.284,0-7.758-3.474-7.758-7.758s3.474-7.758,7.758-7.758h45.511
		c4.284,0,7.758,3.474,7.758,7.758S174.951,332.024,170.667,332.024z"/>
	<path style="fill:#FEE187;" d="M170.667,286.513h-45.511c-4.284,0-7.758-3.474-7.758-7.758s3.474-7.758,7.758-7.758h45.511
		c4.284,0,7.758,3.474,7.758,7.758S174.951,286.513,170.667,286.513z"/>
</g>
<path style="fill:#7CBF34;" d="M170.953,358.572h170.093c9.68,0,17.527-7.847,17.527-17.527V170.953
	c0-9.678-7.847-17.525-17.527-17.525H170.953c-9.678,0-17.525,7.847-17.525,17.525v170.093
	C153.428,350.725,161.275,358.572,170.953,358.572z"/>
<path style="fill:#63AA1F;" d="M341.045,153.428H256v205.145h85.045c9.68,0,17.527-7.847,17.527-17.527V170.955
	C358.572,161.275,350.725,153.428,341.045,153.428z"/>
<path style="fill:#DDDDDD;" d="M188.194,341.333h135.614c9.68,0,17.527-7.847,17.527-17.527V188.192
	c-0.002-9.678-7.849-17.525-17.527-17.525H188.194c-9.68,0-17.527,7.847-17.527,17.525v135.615
	C170.667,333.486,178.514,341.333,188.194,341.333z"/>
<path style="fill:#B7B7B7;" d="M323.806,170.667H256v170.667h67.806c9.68,0,17.527-7.847,17.527-17.527V188.192
	C341.333,178.514,333.486,170.667,323.806,170.667z"/>
<rect x="312.889" y="227.556" style="fill:#FFC61B;" width="28.444" height="56.889"/>
<g>
</g>
<g>
</g>
<g>
</g>
<g>
</g>
<g>
</g>
<g>
</g>
<g>
</g>
<g>
</g>
<g>
</g>
<g>
</g>
<g>
</g>
<g>
</g>
<g>
</g>
<g>
</g>
<g>
</g>
</svg>
